<svg width="36" height="27" viewBox="0 0 36 27" fill="none" xmlns="http://www.w3.org/2000/svg">
<path d="M32.7127 26.0365H27.2625V13.0071L35.0485 7.25879V23.7372C35.0485 25.0075 34.0032 26.0365 32.7127 26.0365Z" fill="#34A853"/>
<path d="M8.57605 26.0365H3.12585C1.83532 26.0365 0.790048 25.0075 0.790048 23.7372V7.25879L8.57605 13.0071V26.0365Z" fill="#4285F4"/>
<path d="M8.57605 3.04342V13.0071L0.790048 7.25881V4.19307C0.790048 1.35151 4.08547 -0.271415 6.39597 1.4339L8.57605 3.04342Z" fill="#C5221F"/>
<path d="M27.2625 13.007V3.0434L17.9192 9.94131L8.57603 3.0434V13.007L17.9192 19.905L27.2625 13.007Z" fill="#EA4335"/>
<path d="M35.0485 4.19307V7.25881L27.2625 13.0071V3.04342L29.4425 1.4339C31.753 -0.271415 35.0485 1.35151 35.0485 4.19307Z" fill="#FBBC04"/>
</svg>
