<svg width="35" height="36" viewBox="0 0 35 36" fill="none" xmlns="http://www.w3.org/2000/svg">
<path d="M34.1289 22.8686C33.9181 22.3766 33.4262 22.0253 32.864 21.8847C32.6532 20.9712 32.3721 20.5495 32.3721 20.4793C32.4423 20.3387 32.5829 20.2684 32.5829 20.1982C33.4262 19.2143 32.864 17.7386 31.4585 17.3872C30.6855 16.6142 29.9828 16.2628 29.3503 15.9817C28.7881 15.7006 28.9989 15.8412 28.507 15.5601C28.3665 14.8574 28.2962 13.3113 28.0854 12.1869C27.8745 11.2031 27.4529 10.4301 26.8907 10.0085C26.6096 9.44627 26.3285 8.95435 25.9069 8.53271C27.8745 5.58121 28.3665 2.62971 26.961 1.08369C26.3285 0.380949 25.415 0.0998535 24.2906 0.0998535C22.6743 0.0998535 20.7769 0.732318 18.8092 1.92697C18.8092 1.92697 17.5443 0.872865 17.474 0.872865C11.9927 -3.41384 -3.53785 15.6304 1.94351 19.7765L3.34898 20.8306C2.43543 23.2902 3.70035 26.2417 6.30048 27.1553C6.86267 27.3661 7.49514 27.4364 8.1276 27.4364C8.1276 27.4364 12.2738 35.0259 21.058 35.0259C31.1774 35.0259 33.7775 25.1173 33.7775 25.0471C33.7073 25.1173 34.5505 23.8524 34.1289 22.8686ZM2.29488 18.5116C1.24077 16.6142 3.13816 12.8194 4.54364 10.5706C7.91678 5.15957 13.609 0.872865 16.2091 1.50533L16.9118 1.22423C16.9118 1.22423 18.8092 2.84053 18.8795 2.84053C20.2147 2.06752 21.9013 1.22423 23.4473 1.08369C22.4635 1.29451 21.3391 1.78642 19.9336 2.62971C19.9336 2.62971 16.6307 4.87847 14.6631 6.84614C13.609 7.90025 9.25198 13.1708 9.25198 13.1005C10.025 11.6248 10.5872 10.8517 11.8521 9.30572C12.5549 8.39216 13.3279 7.54888 14.1009 6.70559C14.4522 6.35422 14.8036 6.00285 15.2253 5.65148C15.5064 5.44066 15.7172 5.15957 15.9983 4.94875C16.1388 4.87847 16.2091 4.73792 16.3496 4.66765L13.8198 2.55944L13.9603 3.473L15.7874 5.08929C15.7874 5.08929 14.1711 6.21367 13.3279 6.91641C10.025 9.72736 6.86267 14.0141 5.66802 18.1602H5.73829C5.1761 18.5116 4.54364 19.0035 4.05172 19.7062C3.8409 19.7765 2.5057 18.863 2.29488 18.5116ZM7.70596 26.312C5.73829 26.312 4.19227 24.6254 4.19227 22.5875C4.19227 20.5495 5.80857 18.863 7.70596 18.863C8.19788 18.863 8.68979 19.0035 9.11144 19.1441C9.11144 19.1441 9.88445 19.4954 10.0953 21.3225C10.3061 20.7603 10.4466 20.2684 10.4466 20.2684C10.7277 21.0414 10.798 21.8847 10.798 22.6577C11.0088 22.3766 11.2196 21.8847 11.2196 21.8847C11.6413 24.274 9.95472 26.312 7.70596 26.312ZM12.0629 13.1708C12.0629 13.1708 13.609 10.2896 16.9118 8.32189C16.6307 8.25161 16.0685 8.39216 15.928 8.39216C16.5605 7.90024 17.6848 7.54888 18.4578 7.33805C18.247 7.19751 17.6848 7.12723 17.4037 7.12723C17.3335 7.12723 17.3335 7.12723 17.2632 7.12723C17.9659 6.70559 19.3714 6.49477 20.5661 6.70559C20.4255 6.49477 20.0741 6.35422 19.7931 6.28395H19.6525H19.7228C20.4958 6.1434 21.3391 6.28395 22.0418 6.56504C21.9715 6.35422 21.7607 6.1434 21.6202 6.00285L21.5499 5.93258C22.2526 6.07313 22.9554 6.4245 23.5176 6.77586C23.4473 6.63532 23.3067 6.42449 23.1662 6.28395C23.8689 6.49477 24.6419 6.98669 24.9933 7.68942V7.7597C23.6581 6.77586 19.8633 7.05696 16.0685 9.51654C14.382 10.6409 13.0468 11.8356 12.0629 13.1708ZM32.7234 24.6254C32.6532 24.6957 32.2315 27.2958 29.4206 29.4743C25.9771 32.215 21.4093 31.9339 19.6525 30.3879C18.7389 29.5446 18.3173 28.2796 18.3173 28.2796C18.3173 28.2796 18.247 28.9824 18.1768 29.2635C17.474 28.0688 17.5443 26.6633 17.5443 26.6633C17.5443 26.6633 17.1929 27.3661 16.9821 27.7175C16.4902 26.3823 16.701 25.0471 16.701 25.0471L16.2794 25.6795C16.2794 25.6795 16.0685 24.2038 16.5605 23.0091C17.0524 21.6739 18.0362 20.7603 18.247 20.6198C17.5443 20.409 16.701 19.7062 16.701 19.7062C16.701 19.7062 17.0524 19.7062 17.2632 19.7062C17.2632 19.7062 15.7874 18.6521 15.5064 17.0358C15.7172 17.3169 16.1388 17.598 16.1388 17.598C15.9983 17.1764 15.928 16.2628 16.0685 15.279C16.3496 13.5221 17.8254 12.3275 19.4417 12.3275C21.1985 12.3275 22.3932 12.6789 23.8689 11.3437C24.15 11.0626 24.4311 10.7815 24.8528 10.7112C24.923 10.7112 24.9933 10.6409 25.2744 10.6409C25.4852 10.6409 25.7663 10.7112 25.9771 10.8517C26.7502 11.3437 26.961 12.6086 27.0313 13.5221C27.3826 16.8953 27.2421 16.3331 28.5773 17.0358C29.2097 17.3872 29.9828 17.6683 30.826 18.5819C31.5288 18.5819 31.8801 19.1441 31.599 19.5657C29.2097 22.3766 25.9069 23.7118 22.2526 23.8524C22.1121 23.8524 21.7607 23.8524 21.7607 23.8524C20.285 23.9227 19.7931 25.8201 20.7066 26.9444C21.2688 27.6472 22.4635 27.9283 23.377 27.9283C27.3826 27.9986 31.4585 25.1876 32.1612 23.5713L32.2315 23.4308C32.091 23.6416 28.1556 27.2958 23.377 27.1553C23.377 27.1553 22.8851 27.1553 22.3932 27.0147C21.7607 26.8742 21.2688 26.5931 21.058 25.9606C21.4796 26.0309 21.9715 26.1012 22.5337 26.1012C25.9771 26.1012 28.4367 24.5551 28.2259 24.4849C28.2259 24.4849 28.2259 24.4849 28.1556 24.4849C27.734 24.5551 23.5878 26.1714 20.9877 25.3281C20.9877 25.2579 20.9877 25.1876 21.058 25.1173C21.2688 24.3443 21.6904 24.4146 22.3932 24.4146C24.7825 24.3443 26.6799 23.7118 28.1556 23.0794C29.7017 22.3766 30.8963 21.3928 31.318 20.9009C31.8801 21.8145 31.8801 23.0091 31.8801 23.0091C31.8801 23.0091 32.091 22.9388 32.3721 22.9388C33.2153 23.0091 33.3559 23.7821 32.7234 24.6254Z" fill="black"/>
<path d="M16.0685 2.77024L16.5605 2.91079L16.1388 1.50531L15.928 2.20805L16.0685 2.77024Z" fill="black"/>
<path d="M18.1768 3.26216L17.4037 2.6297L17.6848 3.61353C17.8254 3.47298 17.9659 3.40271 18.1768 3.26216Z" fill="black"/>
<path d="M25.2744 15.8412C25.6961 15.8412 26.0474 15.9115 26.3988 16.052C26.3988 15.0682 25.8366 14.0141 25.415 14.1546C25.1339 14.2249 25.1339 14.6466 25.1339 14.9277C25.1339 15.279 25.1339 15.5601 25.2744 15.8412Z" fill="black"/>
<path d="M17.3335 3.82437L15.7172 3.33246L16.7713 4.24602C16.9821 4.10547 17.1226 3.96492 17.3335 3.82437Z" fill="black"/>
<path d="M21.4796 17.2467C21.831 17.3872 22.0418 17.4575 22.0418 17.3872C22.0418 17.3872 22.0418 17.2467 21.9715 17.1764C21.7607 16.8953 21.4093 16.6142 21.058 16.5439C20.285 16.2628 19.3714 16.4034 18.7389 16.9656C18.3876 17.2467 18.247 17.5278 18.3876 17.5278C18.4578 17.5278 18.6687 17.4575 18.9498 17.3872C20.0741 16.8953 20.6363 16.8953 21.4796 17.2467Z" fill="black"/>
<path d="M21.5499 18.1602C21.7607 18.1602 21.9013 18.1602 21.9013 18.1602C21.9715 18.0197 21.4796 17.6683 20.7066 17.7386C20.6363 17.7386 20.5661 17.8088 20.4255 17.8088H20.3552C20.2147 17.8791 20.0039 17.9494 19.8633 18.0899C19.7228 18.2305 19.6525 18.371 19.7228 18.4413C19.793 18.5116 19.8633 18.4413 20.0741 18.371C20.7066 18.1602 21.1283 18.1602 21.5499 18.1602Z" fill="black"/>
<path d="M8.9709 21.3226C9.18172 21.6037 9.11144 21.7442 9.18172 21.8145C9.18172 21.8145 9.25199 21.8847 9.32227 21.8145C9.46281 21.7442 9.46281 21.6037 9.46281 21.4631C9.46281 21.182 9.32226 20.8306 9.11144 20.6198C8.83035 20.3387 8.47898 20.0576 7.98706 19.9874C7.56542 19.9171 7.14378 19.9874 7.0735 20.0576C7.00323 20.0576 6.93296 20.0576 6.86268 20.1279C5.7383 20.5495 5.24638 21.6739 5.45721 22.728C5.52748 23.0091 5.66803 23.2902 5.80857 23.501C6.0194 23.7821 6.30049 23.7119 6.15994 23.501C6.15994 23.4308 6.0194 23.1497 5.94912 22.728C5.94912 22.2361 6.0194 21.7442 6.37077 21.3226C6.58159 21.0415 6.86268 20.9009 6.93295 20.9009C7.00323 20.9009 7.00323 20.8306 7.0735 20.8306H7.14378C7.28432 20.7604 7.21405 20.8306 7.3546 20.7604C8.19788 20.6198 8.76007 20.9712 8.9709 21.3226Z" fill="black"/>
<path d="M8.61952 22.1658C8.54925 22.0955 8.47898 22.0253 8.47898 21.955C8.47898 21.8144 8.47898 21.7442 8.61952 21.6739C8.6898 21.6036 8.76007 21.6036 8.76007 21.5333C8.76007 21.4631 8.47897 21.3928 8.19788 21.6036C7.98706 21.8144 7.98706 22.2361 8.26815 22.5172C8.61952 22.8685 9.11144 22.9388 9.18171 23.3605C9.18171 23.4307 9.18171 23.501 9.18171 23.5713C9.18171 23.6416 9.18171 23.7821 9.18171 23.7821C9.11144 24.2037 8.6898 24.6254 7.98706 24.4848C7.84651 24.4848 7.77624 24.4848 7.77624 24.4848C7.70596 24.5551 7.98706 24.9065 8.54925 24.8362C9.32226 24.8362 9.88445 24.0632 9.7439 23.2199C9.67363 22.5172 8.90062 22.3766 8.61952 22.1658Z" fill="black"/>
<path d="M26.7105 17.4613C26.7524 17.1929 26.6308 16.951 26.4391 16.9211C26.2474 16.8912 26.058 17.0846 26.0161 17.353C25.9742 17.6215 26.0957 17.8634 26.2875 17.8933C26.4792 17.9232 26.6686 17.7298 26.7105 17.4613Z" fill="black"/>
<path d="M25.2028 23.2326C25.3147 23.0284 25.1847 22.7419 24.9124 22.5926C24.6401 22.4434 24.3286 22.488 24.2167 22.6922C24.1048 22.8965 24.2348 23.183 24.5071 23.3322C24.7794 23.4814 25.0908 23.4368 25.2028 23.2326Z" fill="black"/>
</svg>
